<svg width="225" height="75" xmlns="http://www.w3.org/2000/svg">
 <g>
  <title>Layer 1</title>
  <g id="svg_1" stroke="null">
   <metadata id="svg_30" stroke="null"/>
   <g transform="matrix(1.19395 0 0 -1.19395 29.7173 -8.88024)" id="svg_2" stroke="null">
    <g transform="translate(0 -187.918) scale(0.1 0.1)" id="svg_3" stroke="null">
     <path id="svg_28" d="m639.1661,1762.92532l-41.621,-112.039l-16.324,0l-41.777,112.039l16.484,0l33.457,-90.105l33.613,90.105l16.168,0" fill-rule="nonzero" fill="#393536" stroke="null"/>
     <path id="svg_27" d="m667.7791,1762.92532l0,-112.039l-15.687,0l0,112.039l15.687,0" fill-rule="nonzero" fill="#393536" stroke="null"/>
     <path id="svg_26" d="m712.5761,1689.94132l39.383,0l-19.691,51.543l-19.692,-51.543zm27.856,72.984l42.738,-112.039l-16.328,0l-9.606,25.293l-49.937,0l-9.605,-25.293l-16.329,0l42.743,112.039l16.324,0" fill-rule="nonzero" fill="#393536" stroke="null"/>
     <path id="svg_25" d="m879.1461,1649.28532c-25.45,0 -44.5,12.648 -44.5,48.496l0,65.144l15.69,0l0,-65.144c0,-25.926 13.29,-33.125 28.81,-33.125c15.53,0 28.81,7.199 28.81,33.125l0,65.144l15.69,0l0,-65.144c0,-35.848 -18.89,-48.496 -44.5,-48.496" fill-rule="nonzero" fill="#393536" stroke="null"/>
     <path id="svg_24" d="m982.3461,1717.79232c-6.08,0 -11.68,-2.082 -16.01,-4.16l-6.56,-3.359l0,-59.387l-15.68,0l0,80.031l12.96,0l2.72,-7.043l5.28,2.727c5.93,3.035 12.97,5.918 21.93,5.918c15.37,0 26.73,-10.246 26.89,-28.965l0,-52.668l-15.68,0l0,48.184c0,13.605 -6.57,18.722 -15.85,18.722" fill-rule="nonzero" fill="#393536" stroke="null"/>
     <path id="svg_23" d="m1048.0961,1730.91732l0,-80.031l-15.52,0l0,80.031l15.52,0zm0.64,28.648l0,-15.034l-16.81,0l0,15.034l16.81,0" fill-rule="nonzero" fill="#393536" stroke="null"/>
     <path id="svg_22" d="m1090.4961,1650.88632l-31.53,80.031l15.36,0l23.85,-60.5l23.85,60.5l15.37,0l-31.54,-80.031l-15.36,0" fill-rule="nonzero" fill="#393536" stroke="null"/>
     <path id="svg_21" d="m1155.4461,1697.94932l43.86,0c-0.64,13.601 -8,21.609 -20.49,21.609c-12,0 -21.44,-7.051 -23.37,-21.609zm-0.16,-11.524c0.96,-15.207 9.77,-23.691 22.73,-23.691c11.21,0 17.45,4.804 20.01,12.644l14.89,0c-2.4,-16.004 -14.57,-26.093 -34.9,-26.093c-22.41,0 -37.93,15.207 -37.93,40.175l0,3.203c0,24.649 15.85,39.856 38.73,39.856c20.97,0 35.7,-14.25 35.7,-39.375l0,-6.719l-59.23,0" fill-rule="nonzero" fill="#393536" stroke="null"/>
     <path id="svg_20" d="m1250.6561,1712.50732l-5.45,-2.715l0,-58.906l-15.68,0l0,80.031l12.96,0l2.72,-7.675l5.45,3.035c6.56,3.683 11.68,4.64 21.6,4.64l0,-14.882c-10.08,0 -16.32,-0.957 -21.6,-3.528" fill-rule="nonzero" fill="#393536" stroke="null"/>
     <path id="svg_19" d="m1313.5361,1684.98032l-5.12,0.801c-15.85,2.402 -27.21,8.007 -27.21,23.047c0,16.804 15.2,23.691 32.65,23.691c18.08,0 30.57,-7.688 31.69,-25.129l-14.89,0c-0.96,8.801 -7.52,12.805 -17.12,12.805c-9.93,0 -17.45,-3.684 -17.45,-11.203c0,-7.207 6.08,-9.922 19.21,-11.688l4.64,-0.637c16.97,-2.402 26.73,-8.328 26.73,-22.89c0,-16.485 -13.29,-24.492 -33.13,-24.492c-19.53,0 -32.82,7.687 -34.1,25.128l14.73,0c2.08,-8.957 8,-12.636 19.53,-12.636c11.04,0 17.6,3.992 17.6,11.355c-0.16,7.531 -4.8,9.766 -17.76,11.848" fill-rule="nonzero" fill="#393536" stroke="null"/>
     <path id="svg_18" d="m1377.2161,1730.91732l0,-80.031l-15.53,0l0,80.031l15.53,0zm0.64,28.648l0,-15.034l-16.81,0l0,15.034l16.81,0" fill-rule="nonzero" fill="#393536" stroke="null"/>
     <path id="svg_17" d="m1418.1761,1730.91732l22.4,0l0,-14.726l-22.4,0l0,-38.254c0,-8.32 2.56,-12.324 10.72,-12.324l12.65,0l0,-14.727l-15.69,0c-17.6,0 -23.21,9.121 -23.21,26.895l0,38.41l-14.08,0l0,14.726l14.08,0l0,19.375l15.53,0l0,-19.375" fill-rule="nonzero" fill="#393536" stroke="null"/>
     <path id="svg_16" d="m1481.6861,1650.88632l-33.45,80.031l16.16,0l24.97,-60.82l23.86,60.82l15.68,0l-44.02,-112.043l-15.68,0l12.48,32.012" fill-rule="nonzero" fill="#393536" stroke="null"/>
     <path id="svg_15" d="m597.7051,1489.28532c-28.808,0 -52.5,20.644 -52.5,57.46l0,1.446c0,36.34 23.692,56.34 52.5,56.34c24.649,0 44.02,-12.649 47.379,-36.172l-16.324,0c-3.684,13.445 -15.051,20.644 -31.055,20.644c-20.488,0 -36.656,-14.082 -36.656,-40.812l0,-1.446c0,-27.05 16.168,-41.933 36.656,-41.933c16.489,0 28.492,8.644 31.531,21.133l16.329,0c-2.879,-22.891 -22.567,-36.66 -47.86,-36.66" fill-rule="nonzero" fill="#393536" stroke="null"/>
     <path id="svg_14" d="m672.0841,1529.94132c0,-16.008 9.289,-26.574 23.375,-26.574c14.723,0 23.367,10.566 23.367,26.738l0,1.758c0,16.652 -8.8,26.574 -23.05,26.574c-13.762,0 -23.692,-9.922 -23.692,-26.574l0,-1.922zm62.43,0.164c0,-25.293 -16.328,-40.977 -39.055,-40.977c-21.933,0 -39.058,15.684 -39.058,40.977l0,2.238c0,25.293 17.449,40.34 39.375,40.34c22.41,0 38.738,-15.047 38.738,-40.34l0,-2.238" fill-rule="nonzero" fill="#393536" stroke="null"/>
     <path id="svg_13" d="m765.0491,1602.92932l0,-112.043l-15.527,0l0,112.043l15.527,0" fill-rule="nonzero" fill="#393536" stroke="null"/>
     <path id="svg_12" d="m799.9361,1602.92932l0,-112.043l-15.532,0l0,112.043l15.532,0" fill-rule="nonzero" fill="#393536" stroke="null"/>
     <path id="svg_11" d="m830.3261,1537.94932l43.85,0c-0.64,13.601 -8,21.609 -20.48,21.609c-12.01,0 -21.45,-7.051 -23.37,-21.609zm-0.16,-11.524c0.96,-15.207 9.76,-23.691 22.72,-23.691c11.21,0 17.46,4.804 20.01,12.644l14.89,0c-2.4,-16.004 -14.56,-26.093 -34.9,-26.093c-22.4,0 -37.93,15.207 -37.93,40.175l0,3.203c0,24.649 15.85,39.856 38.74,39.856c20.97,0 35.69,-14.25 35.69,-39.375l0,-6.719l-59.22,0" fill-rule="nonzero" fill="#393536" stroke="null"/>
     <path id="svg_10" d="m956.5861,1511.21832l2.08,1.438l0,37.617l-2.08,1.433c-3.85,2.403 -9.77,5.93 -18.09,5.93c-13.13,0 -22.89,-9.289 -22.89,-25.773l0,-2.235c0,-15.371 9.12,-24.336 22.73,-24.336c8.32,0 14.4,3.36 18.25,5.926zm2.08,-12.168l-1.61,-1.277c-3.52,-2.727 -11.52,-7.363 -21.45,-7.363c-20.8,0 -35.53,14.558 -35.53,38.73l0,3.047c0,24.168 14.73,40.332 35.53,40.332c9.93,0 17.93,-4.641 21.45,-7.363l1.61,-1.282l2.72,7.043l12.8,0l0,-76.672c0,-24.003 -13.77,-36.972 -36.17,-36.972c-19.85,0 -33.3,8.965 -35.22,26.574l15.53,0c2.24,-8.809 8.8,-12.648 19.69,-12.648c13.6,0 20.65,7.843 20.65,22.57l0,5.281" fill-rule="nonzero" fill="#393536" stroke="null"/>
     <path id="svg_9" d="m1004.7261,1537.94932l43.85,0c-0.64,13.601 -8,21.609 -20.49,21.609c-12,0 -21.44,-7.051 -23.36,-21.609zm-0.17,-11.524c0.97,-15.207 9.77,-23.691 22.73,-23.691c11.21,0 17.46,4.804 20.01,12.644l14.89,0c-2.4,-16.004 -14.56,-26.093 -34.9,-26.093c-22.4,0 -37.93,15.207 -37.93,40.175l0,3.203c0,24.649 15.85,39.856 38.73,39.856c20.98,0 35.7,-14.25 35.7,-39.375l0,-6.719l-59.23,0" fill-rule="nonzero" fill="#393536" stroke="null"/>
     <path id="svg_8" d="m44.1311,1348.67532l139.781,-135.519l0,96.972" stroke-miterlimit="10" stroke-width="7.4452" fill="none" stroke="#3b3a43"/>
     <path id="svg_7" d="m178.9441,1654.69132l156.035,50.847l0,-150.378l-290.848,-70.997" stroke-miterlimit="10" stroke-width="7.4452" fill="none" stroke="#3b3a43"/>
     <path id="svg_6" d="m44.1311,1484.16332l-251.15234,271.012l0,-161.051l251.15234,-245.449" stroke-miterlimit="10" stroke-width="7.4452" fill="none" stroke="#3b3a43"/>
     <path id="svg_5" d="m44.1311,1484.16332l134.813,127.461l0,143.551l-134.813,-135.484l0,-271.016" stroke-miterlimit="10" stroke-width="7.4452" fill="none" stroke="#3b3a43"/>
     <path id="svg_4" d="m44.1311,1484.16332l290.848,-75.234l0,-140.461l-290.848,80.207l-251.15234,-115.644l0,146.152l154.02334,64.395" stroke-miterlimit="10" stroke-width="7.4452" fill="none" stroke="#3b3a43"/>
    </g>
   </g>
  </g>
 </g>

</svg>